<svg width="351" height="49" viewBox="0 0 351 49" fill="none" xmlns="http://www.w3.org/2000/svg">
<g clip-path="url(#clip0_2001_3)">
<path d="M116.2 24.63H124.8C125.55 22.6 124.55 18.93 124 18.11C122.55 15.93 120.61 14.25 118.18 13.05C116.56 12.23 114.78 11.68 112.85 11.41V20.55C113.47 20.82 114.02 21.17 114.47 21.63C115.34 22.47 115.91 23.47 116.21 24.63H116.2Z" fill="#D9D9D9"/>
<path d="M116.59 34.77C116.41 35.65 116.09 36.46 115.61 37.18C115.06 38.03 114.29 38.72 113.31 39.23C113.16 39.3 113 39.36 112.84 39.42V48.48C114.81 48.22 116.64 47.71 118.3 46.91C120.77 45.67 122.76 43.97 124.25 41.79C124.73 41.07 126.32 37.52 126.71 34.77H116.59Z" fill="#D9D9D9"/>
<path d="M108.48 39.85C107.26 39.69 106.22 39.32 105.37 38.72C104.26 37.87 103.45 36.69 102.94 35.2C102.43 33.66 102.17 31.96 102.17 30.08C102.17 28.03 102.45 26.26 103 24.77C103.55 23.28 104.39 22.1 105.5 21.25C106.34 20.63 107.34 20.23 108.48 20.07V11.26C106.11 11.39 103.96 11.85 102.04 12.68C99.8199 13.66 97.9599 15.01 96.4699 16.71C94.9799 18.42 93.8499 20.38 93.0799 22.6C92.3099 24.78 91.9299 27.06 91.9299 29.45V30.67C91.9299 32.97 92.2899 35.21 93.0199 37.39C93.7499 39.52 94.8499 41.44 96.3499 43.15C97.8399 44.86 99.6999 46.22 101.92 47.25C103.83 48.08 106.03 48.54 108.48 48.66V39.86V39.85Z" fill="#D9D9D9"/>
<path d="M83.4999 18.05C82.2199 15.96 80.3399 14.4 77.8699 13.38C75.4399 12.36 72.4299 11.84 68.8499 11.84C67.2499 11.84 65.5199 11.88 63.6299 11.95V20.65C64.5899 20.61 65.5499 20.57 66.4799 20.55C68.0199 20.51 69.2499 20.49 70.1899 20.49C72.0699 20.49 73.4299 20.94 74.2899 21.83C75.1399 22.73 75.5699 24.07 75.5699 25.86V25.99H69.2299C66.1199 25.99 63.3599 26.4 60.9699 27.21C58.5799 27.98 56.7199 29.19 55.3999 30.86C54.0799 32.48 53.4199 34.57 53.4199 37.13C53.4199 39.48 53.9499 41.5 55.0199 43.21C56.0899 44.87 57.5599 46.15 59.4399 47.05C61.3599 47.95 63.5799 48.39 66.0999 48.39C68.6199 48.39 70.5799 47.94 72.2399 47.05C73.9499 46.15 75.2699 44.87 76.2099 43.21C76.6599 42.45 77.0099 41.61 77.2999 40.7V47.5H85.4299V26C85.4299 22.76 84.7899 20.11 83.5099 18.06L83.4999 18.05ZM75.5599 34.5C75.4699 36.25 75.1299 37.61 74.5399 38.6C73.9499 39.59 73.1699 40.29 72.2399 40.71C71.3399 41.09 70.3199 41.29 69.1699 41.29C67.3799 41.29 65.9899 40.86 65.0099 40.01C64.0699 39.11 63.5999 37.96 63.5999 36.55C63.5999 35.06 64.0699 33.88 65.0099 33.03C65.9899 32.13 67.3799 31.69 69.1699 31.69H75.5699V34.51L75.5599 34.5Z" fill="#D9D9D9"/>
<path d="M145.59 29.5H165.49V20.03H145.59V12.48H168.18V2.69H133.04V47.49H169.01V37.7H145.59V29.5Z" fill="#3B87F9"/>
<path d="M10.5 0.770004H0V47.49H10.5V0.770004Z" fill="#D9D9D9"/>
<path d="M45.8899 29.38C43.4999 27.46 40.1499 26.27 35.8399 25.8L33.0899 25.54C31.2599 25.33 29.9299 24.96 29.1199 24.45C28.3099 23.94 27.8999 23.19 27.8999 22.21C27.8999 21.23 28.3699 20.38 29.3099 19.78C30.2499 19.18 31.5099 18.88 33.0899 18.88C35.0999 18.88 36.6099 19.29 37.6299 20.1C38.6499 20.87 39.2499 21.83 39.4199 22.98H48.5099C48.3799 19.23 46.9299 16.37 44.1599 14.4C41.3899 12.39 37.7399 11.39 33.2199 11.39C30.3999 11.39 27.8899 11.82 25.6699 12.67C23.4899 13.52 21.7899 14.78 20.5499 16.45C19.3099 18.12 18.6899 20.18 18.6899 22.66C18.6899 25.65 19.7399 28.1 21.8299 30.02C23.9599 31.94 27.1399 33.11 31.3699 33.54L34.1199 33.8C36.4199 34.06 38.0199 34.5 38.9199 35.14C39.8199 35.74 40.2599 36.55 40.2599 37.57C40.2599 38.72 39.6599 39.62 38.4699 40.26C37.3199 40.86 35.8499 41.16 34.0499 41.16C31.6999 41.16 29.9299 40.73 28.7399 39.88C27.5899 38.98 26.9299 37.98 26.7599 36.87H17.6699C17.8399 40.58 19.3299 43.46 22.1499 45.51C24.9699 47.56 28.8699 48.58 33.8599 48.58C37.0199 48.58 39.7699 48.13 42.1199 47.24C44.4699 46.3 46.2799 44.98 47.5599 43.27C48.8399 41.52 49.4799 39.47 49.4799 37.13C49.4799 33.89 48.2899 31.31 45.8999 29.39L45.8899 29.38Z" fill="#D9D9D9"/>
<path d="M268.88 0H256.72V47.49H268.88V0Z" fill="#3B87F9"/>
<path d="M292.98 34.01L284.65 12.8H272.17L286.44 47.49H298.99L313.32 12.8H301.74L292.98 34.01Z" fill="#3B87F9"/>
<path d="M241.61 14.53C238.67 12.99 235.29 12.23 231.5 12.23C227.71 12.23 224.33 13 221.39 14.53C218.45 16.02 216.12 18.11 214.41 20.8C212.75 23.49 211.92 26.58 211.92 30.08C211.92 33.58 212.75 36.69 214.41 39.42C216.12 42.11 218.44 44.22 221.39 45.76C224.33 47.3 227.7 48.06 231.5 48.06C235.3 48.06 238.67 47.29 241.61 45.76C244.6 44.22 246.92 42.11 248.59 39.42C250.25 36.69 251.09 33.57 251.09 30.08C251.09 26.59 250.26 23.49 248.59 20.8C246.92 18.11 244.6 16.02 241.61 14.53ZM237.83 34.63C237.19 35.87 236.31 36.81 235.21 37.45C234.14 38.09 232.91 38.41 231.5 38.41C230.09 38.41 228.9 38.09 227.79 37.45C226.72 36.81 225.85 35.87 225.17 34.63C224.53 33.35 224.21 31.84 224.21 30.09C224.21 28.34 224.53 26.87 225.17 25.67C225.85 24.43 226.73 23.49 227.79 22.85C228.9 22.21 230.14 21.89 231.5 21.89C232.86 21.89 234.15 22.21 235.21 22.85C236.32 23.49 237.19 24.43 237.83 25.67C238.47 26.86 238.79 28.34 238.79 30.09C238.79 31.84 238.47 33.35 237.83 34.63Z" fill="#3B87F9"/>
<path d="M196.77 21.35H208.35L211.89 12.8H200.3L196.77 21.35Z" fill="#D9D9D9"/>
<path d="M348.49 20.42C346.83 17.73 344.59 15.71 341.77 14.34C338.95 12.93 335.84 12.23 332.43 12.23C328.8 12.23 325.54 13 322.64 14.53C319.74 16.02 317.46 18.14 315.79 20.87C314.17 23.56 313.36 26.63 313.36 30.09C313.36 33.55 314.19 36.64 315.86 39.37C317.57 42.06 319.94 44.19 322.96 45.77C326.03 47.31 329.62 48.07 333.71 48.07C337.04 48.07 339.92 47.6 342.35 46.66C344.78 45.68 346.83 44.27 348.49 42.44L342.09 35.78C340.9 36.8 339.68 37.57 338.44 38.08C337.24 38.55 335.79 38.78 334.09 38.78C332.26 38.78 330.68 38.46 329.35 37.82C328.03 37.14 327 36.18 326.28 34.94C325.99 34.41 325.77 33.83 325.6 33.21H350.79C350.83 32.74 350.87 32.23 350.92 31.67C350.96 31.12 350.98 30.62 350.98 30.2C350.98 26.36 350.15 23.1 348.48 20.41L348.49 20.42ZM328.65 21.83C329.76 21.19 331.04 20.87 332.49 20.87C333.94 20.87 335.2 21.19 336.27 21.83C337.38 22.47 338.23 23.37 338.83 24.52C339.21 25.21 339.46 25.98 339.6 26.82H325.43C325.58 26 325.81 25.25 326.16 24.58C326.76 23.39 327.59 22.47 328.66 21.83H328.65Z" fill="#3B87F9"/>
<path d="M194.12 27.77L191.55 34.01L183.21 12.8H170.73L185.01 47.49H197.55L205.7 27.77H194.12Z" fill="#3B87F9"/>
</g>
<defs>
<clipPath id="clip0_2001_3">
<rect width="350.98" height="48.65" fill="white"/>
</clipPath>
</defs>
</svg>
