<svg width="800" height="110" viewBox="0 0 800 110" fill="none" xmlns="http://www.w3.org/2000/svg">
<g clip-path="url(#clip0_156_81)">
<path d="M0 108.429V2.82861L17.301 22.4715V108.429H0ZM62.8374 109.529C56.8858 109.529 51.2111 108.743 45.6747 107.014C40.2768 105.129 35.9862 103.086 32.8028 100.571L39.1695 86.2715C42.3529 88.6286 46.2284 90.5143 50.6574 91.9286C55.0865 93.5 59.5156 94.1286 63.9446 94.1286C69.2042 94.1286 72.9412 93.3429 75.2941 91.7715C77.6471 90.2 78.8927 88 78.8927 85.3286C78.8927 83.1286 78.0623 81.4 76.5398 80.3C74.8789 79.0429 72.8028 78.2572 70.3114 77.6286C67.8201 77 64.9135 76.5286 61.7301 75.9C58.6851 75.4286 55.5017 74.8 52.3183 74.0143C49.2734 73.0715 46.3668 71.8143 43.8754 70.2429C41.2457 68.5143 39.1696 66.3143 37.6471 63.4858C36.1246 60.6572 35.2941 56.8858 35.2941 52.3286C35.2941 47.1429 36.5398 42.7429 39.1695 39.1286C41.7993 35.3572 45.2595 32.3715 49.9654 30.3286C54.6713 28.2858 60.2076 27.1858 66.5744 27.1858C71.4187 27.1858 76.1246 27.8143 81.1073 29.0715C86.09 30.3286 89.9654 32.0572 93.1488 34.2572L86.782 48.5572C83.4602 46.2 80 44.6286 76.5398 43.8429C73.218 42.9 69.7578 42.4286 66.436 42.4286C61.4533 42.4286 57.5779 43.2143 55.0865 44.9429C52.7336 46.6715 51.4879 48.8715 51.4879 51.3858C51.4879 53.7429 52.3183 55.6286 53.8408 56.8858C55.5017 58.1429 57.5779 59.0858 60.0692 59.7143C62.699 60.3429 65.4671 60.9715 68.5121 61.6C71.6955 62.0715 74.8789 62.7 77.9239 63.4858C80.9689 64.4286 83.8754 65.6858 86.3668 67.2572C88.9965 68.8286 91.2111 70.8715 92.7336 73.7C94.2561 76.5286 95.0865 80.1429 95.0865 84.7C95.0865 89.7286 93.7024 94.1286 91.0727 97.9C88.4429 101.671 84.8443 104.5 80 106.7C75.1557 108.429 69.481 109.529 62.8374 109.529ZM152.941 108.429V92.0858L151.972 88.6286V60.1858C151.972 54.6858 150.45 50.4429 147.543 47.3C144.637 44.1572 140.208 42.5858 134.256 42.5858C130.242 42.5858 126.367 43.2143 122.491 44.6286C118.616 46.0429 115.433 47.9286 112.803 50.4429L106.298 36.7715C110.173 33.4715 114.602 30.9572 119.862 29.3858C125.121 27.6572 130.657 26.8715 136.332 26.8715C146.574 26.8715 154.602 29.7 160.138 35.3572C165.813 40.8572 168.581 49.5 168.581 61.1286V108.271H152.941V108.429ZM130.657 109.529C125.398 109.529 120.692 108.586 116.678 106.543C112.664 104.5 109.619 101.514 107.405 97.9C105.329 94.1286 104.221 90.0429 104.221 85.3286C104.221 80.7715 105.19 76.6858 106.99 73.0715C108.927 69.4572 112.111 66.6286 116.401 64.4286C120.692 62.3858 126.505 61.2858 133.702 61.2858H154.325V73.8572H134.948C129.273 73.8572 125.536 74.9572 123.46 77C121.522 79.0429 120.554 81.5572 120.554 84.5429C120.554 88 121.799 90.6715 124.152 92.7143C126.505 94.7572 129.827 95.7 134.118 95.7C138.131 95.7 141.869 94.6 145.052 92.5572C148.374 90.5143 150.727 87.3715 152.111 83.1286L154.879 94.4429C153.218 99.1572 150.45 102.771 146.298 105.443C142.145 108.114 136.886 109.529 130.657 109.529ZM222.699 109.529C215.225 109.529 208.581 107.8 202.768 104.186C196.955 100.571 192.526 95.7 189.204 89.4143C185.882 83.1286 184.221 76.0572 184.221 68.2C184.221 60.1858 185.882 53.1143 189.204 46.9858C192.526 40.7 196.955 35.8286 202.768 32.3715C208.581 28.9143 215.225 27.0286 222.699 27.0286C229.619 27.0286 235.709 28.6 240.969 31.9C246.228 35.0429 250.381 39.6 253.01 45.7286L240.277 54.2143C238.201 50.4429 235.571 47.6143 232.388 45.7286C229.343 43.8429 226.159 43.0572 222.561 43.0572C218.547 43.0572 214.81 44 211.488 46.0429C208.166 48.0858 205.675 50.9143 203.737 54.8429C201.938 58.6143 200.969 63.0143 200.969 68.2C200.969 73.3858 201.938 77.9429 203.737 81.7143C205.536 85.4858 208.166 88.3143 211.488 90.3572C214.81 92.4 218.408 93.3429 222.561 93.3429C226.159 93.3429 229.343 92.4 232.388 90.6715C235.433 88.7858 238.062 86.1143 240.277 82.1858L253.01 90.6715C250.242 96.6429 246.228 101.357 240.969 104.657C235.571 107.8 229.619 109.529 222.699 109.529Z" fill="white"/>
<path d="M284.844 46.6715H331.073V62.8573H284.844V46.6715ZM286.228 91.9287H338.685V108.429H268.927V2.82868H336.886V19.3287H286.228V91.9287ZM384.083 108.429L343.391 2.82868H362.076L390.727 83.443L383.529 103.872L424.221 2.98582H441.522L401.107 108.429H384.083ZM494.118 110C486.92 110 480.138 108.586 474.048 105.914C467.958 103.243 462.56 99.4715 458.131 94.6001C453.564 89.7287 450.104 83.9144 447.612 77.4715C445.121 70.8715 443.875 63.643 443.875 55.7858C443.875 47.9287 445.121 40.7001 447.612 34.2572C450.104 27.6572 453.564 21.843 458.131 17.1287C462.699 12.2572 467.958 8.32868 474.048 5.65725C480.138 2.98582 486.782 1.57153 493.979 1.57153C501.176 1.57153 507.82 2.98582 513.91 5.65725C520 8.32868 525.398 12.2572 529.827 17.1287C534.394 22.0001 537.855 27.6572 540.346 34.2572C542.837 40.8572 544.083 47.9287 544.083 55.7858C544.083 63.643 542.837 70.8715 540.346 77.4715C537.855 84.0715 534.394 89.8858 529.827 94.6001C525.259 99.4715 520 103.243 513.91 105.914C507.958 108.586 501.315 110 494.118 110ZM493.979 92.7144C498.685 92.7144 502.976 91.7715 506.989 90.043C511.003 88.1573 514.464 85.643 517.37 82.343C520.277 78.8858 522.491 74.9573 524.152 70.5573C525.813 66.0001 526.643 61.1287 526.643 55.6287C526.643 50.1287 525.813 45.2572 524.152 40.8572C522.491 36.3001 520.277 32.3715 517.37 29.0715C514.464 25.6144 511.003 23.1001 506.989 21.2144C502.976 19.3287 498.685 18.543 493.979 18.543C489.273 18.543 484.983 19.4858 480.969 21.2144C477.093 23.1001 473.633 25.6144 470.588 29.0715C467.682 32.3715 465.329 36.3001 463.668 40.8572C462.007 45.2572 461.315 50.2858 461.315 55.6287C461.315 60.9715 462.145 65.843 463.668 70.4001C465.329 74.9573 467.682 78.8858 470.588 82.343C473.495 85.643 476.955 88.1573 480.969 90.043C484.983 91.7715 489.273 92.7144 493.979 92.7144ZM562.353 108.429V2.82868L579.654 22.4715V91.9287H628.374V108.429H562.353ZM679.861 108.429H662.837ZM703.114 2.82868H720.415ZM677.232 98.3715H666.436ZM622.145 2.82868H640.83ZM746.159 46.6715H792.387V62.8573H746.159V46.6715ZM747.405 91.9287H800V108.429H730.242V2.82868H798.201V19.3287H747.405V91.9287Z" fill="#FF0035"/>
<path d="M720.831 2.82861L680.415 108.429H663.391L622.699 2.82861H641.384L670.173 83.4429L662.838 103.714L703.668 2.82861H720.831Z" fill="#FF0035"/>
</g>
<defs>
<clipPath id="clip0_156_81">
<rect width="800" height="110" fill="white"/>
</clipPath>
</defs>
</svg>
